<?xml version="1.0" encoding="UTF-8" standalone="no"?>
<svg
   version="1.1"
   width="1024"
   height="1024"
   viewBox="0 0 768.07294 767.97424"
   id="svg24"
   sodipodi:docname="DJV_Icon_1024.svg"
   inkscape:version="1.3.2 (091e20e, 2023-11-25)"
   inkscape:export-filename="DJV_Icon_512.png"
   inkscape:export-xdpi="96"
   inkscape:export-ydpi="96"
   xmlns:inkscape="http://www.inkscape.org/namespaces/inkscape"
   xmlns:sodipodi="http://sodipodi.sourceforge.net/DTD/sodipodi-0.dtd"
   xmlns:xlink="http://www.w3.org/1999/xlink"
   xmlns="http://www.w3.org/2000/svg"
   xmlns:svg="http://www.w3.org/2000/svg">
  <sodipodi:namedview
     id="namedview24"
     pagecolor="#ffffff"
     bordercolor="#000000"
     borderopacity="0.25"
     inkscape:showpageshadow="2"
     inkscape:pageopacity="0.0"
     inkscape:pagecheckerboard="0"
     inkscape:deskcolor="#d1d1d1"
     inkscape:document-units="px"
     showgrid="false"
     inkscape:current-layer="g7"
     inkscape:zoom="0.7236796"
     inkscape:cx="493.31223"
     inkscape:cy="496.07589"
     inkscape:window-width="1832"
     inkscape:window-height="1027"
     inkscape:window-x="0"
     inkscape:window-y="25"
     inkscape:window-maximized="0">
    <inkscape:page
       x="0"
       y="0"
       width="768.07294"
       height="767.97424"
       id="page2"
       margin="0"
       bleed="0"
       inkscape:export-filename="DJV_Icon_1024.png"
       inkscape:export-xdpi="96"
       inkscape:export-ydpi="96" />
  </sodipodi:namedview>
  <defs
     id="defs1">
    <linearGradient
       id="linearGradient7"
       inkscape:collect="always">
      <stop
         style="stop-color:#4d4d4d;stop-opacity:1;"
         offset="0"
         id="stop7" />
      <stop
         style="stop-color:#808080;stop-opacity:1;"
         offset="1"
         id="stop16" />
    </linearGradient>
    <linearGradient
       id="linearGradient1"
       inkscape:collect="always">
      <stop
         style="stop-color:#4d4d4d;stop-opacity:1;"
         offset="0"
         id="stop1" />
      <stop
         style="stop-color:#b2b2b2;stop-opacity:1;"
         offset="1"
         id="stop2" />
    </linearGradient>
    <linearGradient
       id="linearGradient27"
       inkscape:collect="always">
      <stop
         style="stop-color:#808080;stop-opacity:1;"
         offset="0"
         id="stop27" />
      <stop
         style="stop-color:#cccccc;stop-opacity:1;"
         offset="1"
         id="stop28" />
    </linearGradient>
    <linearGradient
       id="linearGradient26"
       inkscape:collect="always">
      <stop
         style="stop-color:#808080;stop-opacity:1;"
         offset="0"
         id="stop25" />
      <stop
         style="stop-color:#ffffff;stop-opacity:1;"
         offset="1"
         id="stop26" />
    </linearGradient>
    <linearGradient
       id="linearGradient24"
       inkscape:collect="always">
      <stop
         style="stop-color:#808080;stop-opacity:1;"
         offset="0"
         id="stop23" />
      <stop
         style="stop-color:#ffffff;stop-opacity:1;"
         offset="1"
         id="stop24" />
    </linearGradient>
    <linearGradient
       id="linearGradient14"
       inkscape:collect="always">
      <stop
         style="stop-color:#808080;stop-opacity:1;"
         offset="0"
         id="stop14" />
      <stop
         style="stop-color:#ffffff;stop-opacity:1;"
         offset="1"
         id="stop15" />
    </linearGradient>
    <linearGradient
       id="linearGradient12"
       inkscape:collect="always">
      <stop
         style="stop-color:#808080;stop-opacity:1;"
         offset="0"
         id="stop12" />
      <stop
         style="stop-color:#ffffff;stop-opacity:1;"
         offset="1"
         id="stop13" />
    </linearGradient>
    <linearGradient
       id="linearGradient10"
       inkscape:collect="always">
      <stop
         style="stop-color:#808080;stop-opacity:1;"
         offset="0"
         id="stop10" />
      <stop
         style="stop-color:#ffffff;stop-opacity:1;"
         offset="1"
         id="stop11" />
    </linearGradient>
    <linearGradient
       id="linearGradient8"
       inkscape:collect="always">
      <stop
         style="stop-color:#808080;stop-opacity:1;"
         offset="0"
         id="stop8" />
      <stop
         style="stop-color:#ffffff;stop-opacity:1;"
         offset="1"
         id="stop9" />
    </linearGradient>
    <linearGradient
       inkscape:collect="always"
       xlink:href="#linearGradient8"
       id="linearGradient9"
       x1="130.43703"
       y1="86.462952"
       x2="253.56725"
       y2="86.462952"
       gradientUnits="userSpaceOnUse"
       gradientTransform="matrix(2,0,0,2,0,0.04935)" />
    <linearGradient
       inkscape:collect="always"
       xlink:href="#linearGradient10"
       id="linearGradient11"
       x1="40.047272"
       y1="127.78686"
       x2="146.10066"
       y2="127.78686"
       gradientUnits="userSpaceOnUse"
       gradientTransform="matrix(2,0,0,2,0,0.04935)" />
    <linearGradient
       inkscape:collect="always"
       xlink:href="#linearGradient12"
       id="linearGradient13"
       x1="237.90356"
       y1="127.78682"
       x2="343.95691"
       y2="127.78682"
       gradientUnits="userSpaceOnUse"
       gradientTransform="matrix(2,0,0,2,0,0.04935)" />
    <linearGradient
       inkscape:collect="always"
       xlink:href="#linearGradient24"
       id="linearGradient15"
       x1="237.9035"
       y1="256.15442"
       x2="343.95691"
       y2="256.15442"
       gradientUnits="userSpaceOnUse"
       gradientTransform="matrix(2,0,0,2,0,0.04935)" />
    <linearGradient
       inkscape:collect="always"
       xlink:href="#linearGradient26"
       id="linearGradient16"
       x1="130.43704"
       y1="297.47833"
       x2="253.5672"
       y2="297.47833"
       gradientUnits="userSpaceOnUse"
       gradientTransform="matrix(2,0,0,2,0,0.04935)" />
    <linearGradient
       inkscape:collect="always"
       xlink:href="#linearGradient14"
       id="linearGradient17"
       x1="40.047287"
       y1="256.15439"
       x2="146.10066"
       y2="256.15439"
       gradientUnits="userSpaceOnUse"
       gradientTransform="matrix(2,0,0,2,0,0.04935)" />
    <linearGradient
       inkscape:collect="always"
       xlink:href="#linearGradient27"
       id="linearGradient28"
       x1="-362.25974"
       y1="192.01823"
       x2="-21.72739"
       y2="192.01823"
       gradientUnits="userSpaceOnUse"
       gradientTransform="matrix(0,-2,2,0,0,0.04935)" />
    <linearGradient
       inkscape:collect="always"
       xlink:href="#linearGradient1"
       id="linearGradient2"
       x1="-362.25974"
       y1="192.01823"
       x2="-21.72739"
       y2="192.01823"
       gradientUnits="userSpaceOnUse"
       gradientTransform="matrix(0,-2,2,0,0,0.04935)" />
    <linearGradient
       inkscape:collect="always"
       xlink:href="#linearGradient7"
       id="linearGradient18"
       x1="-218.80859"
       y1="192.01823"
       x2="-165.17851"
       y2="192.01823"
       gradientUnits="userSpaceOnUse"
       gradientTransform="matrix(0,2.4,-2.4,0,844.88022,844.82099)" />
  </defs>
  <g
     id="g7">
    <path
       style="fill:url(#linearGradient28);fill-opacity:1;stroke:url(#linearGradient2);stroke-width:6.00056;stroke-dasharray:none;stroke-opacity:1"
       d="M 384.03648,46.504416 A 337.53204,337.53204 0 0 0 46.504416,384.03647 337.53204,337.53204 0 0 0 384.03648,721.56853 337.53204,337.53204 0 0 0 721.56852,384.03647 337.53204,337.53204 0 0 0 384.03648,46.504416 Z"
       id="circle1" />
    <path
       style="fill:#333333;fill-opacity:1;stroke:url(#linearGradient18);stroke-width:7.20068;stroke-dasharray:none;stroke-opacity:1"
       d="m 384.03644,444.79223 a 60.755772,60.755772 0 0 1 -60.75574,-60.75576 60.755772,60.755772 0 0 1 60.75574,-60.75576 60.755772,60.755772 0 0 1 60.75578,60.75576 60.755772,60.755772 0 0 1 -60.75578,60.75576 z"
       id="path7" />
    <rect
       style="fill:#000000;fill-opacity:0;stroke-width:76.4836"
       id="rect7"
       width="768.07294"
       height="768.07294"
       x="0"
       y="-9.1791152e-10" />
    <path
       d="M 357.58468,253.09991 274.13522,148.17088 a 33.75601,33.75601 0 0 1 15.9884,-53.115164 303.80408,303.80408 0 0 1 187.76118,0 33.75601,33.75601 0 0 1 15.98842,53.115284 l -83.44948,104.92891 a 33.75601,33.75601 0 0 1 -52.83906,0"
       stroke="#000000"
       stroke-width="0.137534"
       stroke-linecap="round"
       stroke-linejoin="round"
       fill="none"
       id="path1"
       style="fill:#333333;fill-opacity:1;stroke:url(#linearGradient9);stroke-width:6.00056;stroke-dasharray:none;stroke-opacity:1" />
    <path
       d="m 257.43982,341.42523 -132.59589,19.80494 a 33.75601,33.75601 0 0 1 -38.004938,-40.40402 303.80408,303.80408 0 0 1 93.880648,-162.60598 33.75601,33.75601 0 0 1 53.99328,12.71127 l 49.14638,124.73385 a 33.75601,33.75601 0 0 1 -26.41948,45.75994"
       stroke="#000000"
       stroke-width="0.137534"
       stroke-linecap="round"
       stroke-linejoin="round"
       fill="none"
       id="path2"
       style="fill:#333333;fill-opacity:1;stroke:url(#linearGradient11);stroke-width:6.00056;stroke-dasharray:none;stroke-opacity:1" />
    <path
       d="m 283.8593,472.31605 -49.1464,124.73372 a 33.75601,33.75601 0 0 1 -53.99326,12.71128 303.80408,303.80408 0 0 1 -93.880648,-162.6061 33.75601,33.75601 0 0 1 38.004918,-40.4039 l 132.59591,19.80504 a 33.75601,33.75601 0 0 1 26.41948,45.75996"
       stroke="#000000"
       stroke-width="0.137534"
       stroke-linecap="round"
       stroke-linejoin="round"
       fill="none"
       id="path3"
       style="fill:#333333;fill-opacity:1;stroke:url(#linearGradient17);stroke-width:6.00056;stroke-dasharray:none;stroke-opacity:1" />
    <path
       d="m 410.42374,514.88141 83.44948,104.92892 a 33.75601,33.75601 0 0 1 -15.98842,53.11516 303.80408,303.80408 0 0 1 -187.76118,0 33.75601,33.75601 0 0 1 -15.98836,-53.11516 l 83.44942,-104.92892 a 33.75601,33.75601 0 0 1 52.8391,0"
       stroke="#000000"
       stroke-width="0.137534"
       stroke-linecap="round"
       stroke-linejoin="round"
       fill="none"
       id="path4"
       style="fill:#333333;fill-opacity:1;stroke:url(#linearGradient16);stroke-width:6.00056;stroke-dasharray:none;stroke-opacity:1" />
    <path
       d="m 510.56868,426.55609 132.59584,-19.80504 a 33.75601,33.75601 0 0 1 38.0049,40.4039 303.80408,303.80408 0 0 1 -93.88056,162.6061 33.75601,33.75601 0 0 1 -53.99332,-12.71128 L 484.14912,472.31605 a 33.75601,33.75601 0 0 1 26.41956,-45.76018"
       stroke="#000000"
       stroke-width="0.137534"
       stroke-linecap="round"
       stroke-linejoin="round"
       fill="none"
       id="path5"
       style="fill:#333333;fill-opacity:1;stroke:url(#linearGradient15);stroke-width:6.00056;stroke-dasharray:none;stroke-opacity:1" />
    <path
       d="m 484.14912,295.66529 49.14642,-124.73385 a 33.75601,33.75601 0 0 1 53.99332,-12.71127 303.80408,303.80408 0 0 1 93.88056,162.60598 33.75601,33.75601 0 0 1 -38.0049,40.40392 L 510.56868,341.42523 a 33.75601,33.75601 0 0 1 -26.41952,-45.75994"
       stroke="#000000"
       stroke-width="0.137534"
       stroke-linecap="round"
       stroke-linejoin="round"
       fill="none"
       id="path6"
       style="fill:#333333;fill-opacity:1;stroke:url(#linearGradient13);stroke-width:6.00056;stroke-dasharray:none;stroke-opacity:1" />
  </g>
</svg>
